<?xml version="1.0" ?><svg height="512" id="Layer_1" version="1.1" viewBox="0 0 512 512" width="512" xml:space="preserve" xmlns="http://www.w3.org/2000/svg" xmlns:cc="http://creativecommons.org/ns#" xmlns:dc="http://purl.org/dc/elements/1.1/" xmlns:inkscape="http://www.inkscape.org/namespaces/inkscape" xmlns:rdf="http://www.w3.org/1999/02/22-rdf-syntax-ns#" xmlns:sodipodi="http://sodipodi.sourceforge.net/DTD/sodipodi-0.dtd" xmlns:svg="http://www.w3.org/2000/svg"><defs id="defs12"/><g id="g3206"><rect height="512" id="rect2987" rx="64" ry="64" style="fill:#094ab2;fill-opacity:1;fill-rule:nonzero;stroke:none" width="512" x="0" y="0"/><path d="m 456,312.43999 c 0,43.69332 -35.1645,79.11554 -78.5245,79.11554 H 134.5111 C 91.1511,391.55553 56,356.13331 56,312.43999 c 0,-39.46222 28.6667,-72.1511 66.1734,-78.13332 -0.4756,-2.76889 -0.7378,-5.61778 -0.7378,-8.55111 0,-27.68444 22.2755,-50.12443 49.76,-50.12443 12.2577,0 23.4889,4.46666 32.1555,11.89777 15.4489,-35.07554 35.2533,-67.08443 90.8133,-67.08443 67.3822,0 99.32,52.35999 99.32,107.61331 0,2.31111 -0.098,4.6 -0.2533,6.86667 C 429.0489,242.27556 456,274.18666 456,312.43999 z" id="MobileMe" style="fill:#ffffff;fill-opacity:1;fill-rule:evenodd"/></g></svg>