<?xml version="1.0" ?><svg height="512" id="Layer_1" version="1.1" viewBox="0 0 512 512" width="512" xml:space="preserve" xmlns="http://www.w3.org/2000/svg" xmlns:cc="http://creativecommons.org/ns#" xmlns:dc="http://purl.org/dc/elements/1.1/" xmlns:inkscape="http://www.inkscape.org/namespaces/inkscape" xmlns:rdf="http://www.w3.org/1999/02/22-rdf-syntax-ns#" xmlns:sodipodi="http://sodipodi.sourceforge.net/DTD/sodipodi-0.dtd" xmlns:svg="http://www.w3.org/2000/svg"><defs id="defs12"/><g id="g3820" transform="translate(297.22034,0)"><rect height="512" id="rect2987" rx="64" ry="64" style="fill:#f42424;fill-opacity:1;fill-rule:nonzero;stroke:none" width="512" x="-297.22034" y="5.6843419e-014"/><path d="m 71.947711,101.36665 c -90.39203,-59.783503 -225.202401,-35.041723 -286.061851,55.34721 -64.39396,87.1997 -43.23606,221.10062 42.49156,286.5212 30.14301,-41.07188 79.122501,-68.4896 130.602231,-68.15202 51.36103,-0.90021 100.79679,25.87936 131.34212,66.6676 C 123.25479,414.73369 148.56844,378.20755 160.28345,337.14339 187.86919,250.39996 149.76769,148.57965 71.947711,101.36665 z m -118.37855,254.55003 c -38.05216,-2.38462 -70.587511,-36.17623 -71.842241,-74.17291 -2.3877,-33.04865 20.250001,-64.61903 51.199181,-75.31514 42.94319,-17.23492 95.79017,14.33855 102.21493,59.89604 9.04984,46.87078 -34.24017998,93.97126 -81.57187,89.59201 z" id="path9-6" style="fill:#ffffff"/></g></svg>