<?xml version="1.0" ?><svg height="512" id="Layer_1" version="1.1" viewBox="0 0 512 512" width="512" xml:space="preserve" xmlns="http://www.w3.org/2000/svg" xmlns:cc="http://creativecommons.org/ns#" xmlns:dc="http://purl.org/dc/elements/1.1/" xmlns:inkscape="http://www.inkscape.org/namespaces/inkscape" xmlns:rdf="http://www.w3.org/1999/02/22-rdf-syntax-ns#" xmlns:sodipodi="http://sodipodi.sourceforge.net/DTD/sodipodi-0.dtd" xmlns:svg="http://www.w3.org/2000/svg"><defs id="defs12"/><g id="g6373"><rect height="512" id="rect2987" rx="64" ry="64" style="fill:#f5ae04;fill-opacity:1;fill-rule:nonzero;stroke:none" width="512" x="0" y="5.6843419e-014"/><path d="m 415.07103,169.33336 -31.1644,66.99554 -28.83555,-66.99554 h -44.18666 l 7.44445,14.99111 c -4.18222,-0.46667 -8.84,-0.93778 -13.96,-0.93778 -11.62666,0 -21.86221,1.87556 -28.82665,7.50222 -7.44889,4.68444 -11.63111,13.58222 -11.63111,27.17333 h 30.69332 c 0,-8.90222 0.46667,-17.33333 11.63111,-17.33333 11.16444,0 12.55555,7.02666 12.55555,16.39555 v 8.89777 c -17.67555,-0.47111 -34.88443,0 -45.58221,8.42667 -4.65333,-4.68 -10.70222,-7.49333 -19.99999,-7.49333 -11.16444,0 -18.60888,3.28444 -25.11555,12.64888 h -0.46666 v -58.55553 h -30.69333 v 52.93331 c -4.64888,-2.34222 -10.23555,-3.74222 -16.74221,-5.15555 -10.70222,-2.34223 -24.65778,-3.74222 -42.32889,-3.74222 -73.955525,0 -81.862185,22.9511 -81.862185,49.65776 0,30.91998 9.30666,52.47109 81.857755,52.47109 16.74665,0 31.16888,-1.88 42.7911,-4.22667 6.04444,-1.4 11.6311,-3.27555 16.27999,-5.62222 v 22.96444 h 29.30666 v -12.18222 h 0.46222 c 5.58666,10.77333 13.95555,14.52 26.04443,14.52 25.58666,0 29.76444,-22.95555 30.70221,-43.56888 2.32,0.47111 4.64889,0.47111 7.44,0.47111 13.48444,0 22.32444,-5.62666 28.83555,-16.86221 h 0.46666 l 1.39111,14.9911 h 28.84444 c -0.46667,-7.02666 -1.39556,-14.05333 -1.39556,-21.07999 v -29.51554 l 12.55111,25.76888 v 54.80886 h 40.4667 v -54.80886 l 53.95549,-103.53775 h -40.9289 z m -277.21321,72.61331 c 26.97776,0 26.04888,13.59111 26.04888,22.95999 h -51.16443 c 0,-7.96444 -0.46222,-22.95999 25.11555,-22.95999 z m 42.7911,49.66221 h -0.46223 -18.14222 c 0,8.42666 -4.18667,17.79555 -24.18665,17.79555 -24.64444,0 -25.11555,-17.33333 -25.11555,-29.04444 h 84.18664 v 11.24444 h -16.27999 z m 72.55997,-7.96445 c 0,28.10666 -1.85778,39.81777 -13.02222,39.81777 -10.70222,0 -12.56444,-11.71111 -12.56444,-39.81777 0,-22.01777 0,-37.47998 12.56444,-37.47998 13.48889,0 13.02222,15.46221 13.02222,37.47998 z m 50.23109,-3.28444 c -10.2311,0 -11.62666,-9.83555 -11.62666,-17.79999 0,-19.68 11.62666,-18.27111 26.97777,-19.20888 0,12.18666 2.78666,37.00887 -15.35111,37.00887 z" id="eBay" style="fill:#ffffff;fill-opacity:1;fill-rule:evenodd"/></g></svg>